<?xml version="1.0" standalone="no"?>
<!DOCTYPE svg PUBLIC "-//W3C//DTD SVG 20010904//EN"
 "http://www.w3.org/TR/2001/REC-SVG-20010904/DTD/svg10.dtd">
<svg version="1.0" xmlns="http://www.w3.org/2000/svg"
 width="530.000000pt" height="422.000000pt" viewBox="0 0 530.000000 422.000000"
 preserveAspectRatio="xMidYMid meet">

<g transform="translate(0.000000,422.000000) scale(0.100000,-0.100000)"
fill="#000000" stroke="none">
<path d="M3325 4114 c-6 -2 -86 -20 -179 -39 -93 -19 -171 -36 -174 -39 -4 -4
76 -416 82 -423 3 -4 411 80 418 86 5 4 -11 100 -34 214 l-41 207 -31 -1 c-17
0 -36 -3 -41 -5z"/>
<path d="M2781 3790 l-112 -170 11 -58 c20 -103 62 -307 66 -321 3 -8 55 60
119 157 l115 171 -40 192 c-21 105 -41 193 -43 195 -2 3 -55 -72 -116 -166z"/>
<path d="M2254 3813 c7 -22 76 -365 76 -376 0 -10 316 -217 331 -217 6 0 9 6
6 14 -3 8 -23 97 -43 198 l-37 184 -161 107 c-89 59 -165 107 -169 107 -5 0
-6 -8 -3 -17z"/>
<path d="M2055 3648 l-107 -161 26 -131 c15 -72 33 -164 42 -204 l16 -73 26
38 c15 21 65 96 112 166 l84 129 -39 194 c-21 107 -42 197 -46 199 -4 3 -55
-68 -114 -157z"/>
<path d="M1206 3680 c-104 -22 -191 -42 -194 -44 -2 -3 3 -42 11 -88 22 -116
68 -332 71 -336 2 -1 90 16 196 38 106 22 196 40 199 40 3 0 12 4 18 8 12 8 5
50 -64 377 -6 29 -14 41 -28 42 -11 1 -105 -16 -209 -37z"/>
<path d="M3865 3695 c-60 -13 -149 -31 -197 -40 -50 -10 -88 -22 -88 -29 0 -6
16 -87 36 -181 19 -93 38 -185 41 -202 3 -19 12 -33 20 -33 7 0 64 11 126 24
62 13 151 32 200 42 48 9 87 21 87 25 0 8 -13 74 -51 254 -10 50 -21 107 -25
128 -7 44 -2 43 -149 12z"/>
<path d="M1530 3663 c0 -10 9 -61 21 -113 11 -52 27 -132 35 -177 l16 -81 175
-117 c164 -109 175 -115 170 -88 -10 56 -60 299 -68 334 -8 32 -23 45 -126
114 -216 144 -223 148 -223 128z"/>
<path d="M3315 3582 c-60 -12 -146 -31 -190 -40 l-80 -17 -112 -170 c-62 -93
-111 -170 -109 -172 2 -2 243 46 366 73 20 4 51 44 133 171 60 91 107 168 105
172 -2 4 -52 -4 -113 -17z"/>
<path d="M3409 3412 c-54 -81 -104 -159 -113 -173 -16 -25 -15 -36 20 -210 20
-101 40 -188 44 -192 4 -4 57 68 119 161 l112 169 -37 179 c-20 98 -39 187
-43 196 -4 12 -33 -25 -102 -130z"/>
<path d="M2189 3169 c-66 -100 -117 -185 -112 -189 17 -17 344 -230 352 -230
7 0 202 286 230 337 11 22 3 28 -169 143 l-180 119 -121 -180z"/>
<path d="M1395 3189 c-71 -16 -149 -31 -172 -35 -24 -4 -43 -10 -43 -15 0 -6
260 -183 325 -221 9 -6 382 66 391 75 9 8 -321 221 -346 223 -14 1 -83 -11
-155 -27z"/>
<path d="M3985 3190 c-104 -18 -311 -63 -321 -69 -7 -3 -62 -82 -123 -174
l-112 -169 43 7 c23 4 112 22 198 39 l155 32 112 172 c62 95 107 171 100 171
-6 -1 -30 -5 -52 -9z"/>
<path d="M3055 3145 c-228 -47 -270 -56 -273 -60 -4 -3 3 -39 48 -260 17 -82
34 -153 38 -157 5 -5 37 -2 73 6 35 8 125 27 199 42 74 14 138 29 143 33 4 4
-4 63 -18 132 -14 68 -33 161 -41 207 -19 96 -6 91 -169 57z"/>
<path d="M885 3085 c-60 -13 -150 -31 -198 -41 -77 -14 -87 -18 -82 -35 3 -10
10 -40 14 -66 17 -102 64 -322 71 -333 5 -8 34 -5 106 10 54 12 147 30 207 42
96 18 107 22 107 42 0 17 -56 305 -75 384 -7 27 -11 27 -150 -3z"/>
<path d="M1124 3053 c2 -10 14 -65 26 -123 11 -58 28 -138 36 -178 l16 -73
171 -114 c94 -63 172 -113 173 -112 4 4 -74 376 -81 387 -7 12 -330 230 -340
230 -4 0 -4 -8 -1 -17z"/>
<path d="M2596 2844 l-109 -165 39 -194 c22 -107 41 -195 44 -195 3 0 53 75
112 165 l107 165 -19 98 c-28 145 -58 284 -62 288 -3 2 -53 -71 -112 -162z"/>
<path d="M1745 2878 c-104 -22 -191 -41 -191 -42 -3 -2 84 -417 88 -421 2 -3
98 15 214 38 158 33 209 47 208 58 -2 17 -73 367 -80 392 -7 23 -17 22 -239
-25z"/>
<path d="M2091 2788 c10 -51 27 -136 38 -188 11 -52 21 -98 21 -103 0 -9 314
-217 327 -217 8 0 -2 61 -58 328 l-11 53 -164 109 c-90 61 -165 110 -167 110
-2 0 4 -42 14 -92z"/>
<path d="M3655 2740 c-99 -22 -187 -40 -195 -42 -17 -4 308 -222 330 -221 29
0 390 77 390 82 -1 11 -331 223 -342 220 -2 -1 -84 -18 -183 -39z"/>
<path d="M3235 2484 c-63 -96 -115 -180 -115 -187 0 -10 319 -225 349 -235 10
-3 241 339 241 355 0 7 -139 101 -317 215 l-43 27 -115 -175z"/>
<path d="M3120 2630 c-47 -10 -125 -26 -174 -36 l-88 -17 -110 -165 c-60 -90
-107 -166 -105 -168 3 -3 285 52 365 71 15 4 56 56 132 170 123 186 125 177
-20 145z"/>
<path d="M957 2572 c-99 -20 -179 -41 -179 -45 1 -5 75 -58 166 -118 l166
-108 192 39 c106 22 195 40 198 40 3 0 -73 52 -167 115 -95 63 -178 115 -185
114 -7 0 -93 -17 -191 -37z"/>
<path d="M4110 2459 c-25 -6 -85 -18 -135 -29 -49 -10 -110 -22 -133 -25 -44
-7 -44 -7 -153 -173 -60 -91 -108 -167 -105 -169 3 -3 399 75 402 80 4 5 182
276 197 300 17 27 17 27 -5 26 -13 -1 -43 -5 -68 -10z"/>
<path d="M1915 2384 c-93 -19 -177 -37 -184 -40 -9 -3 50 -48 151 -115 l165
-110 179 36 c98 20 185 40 193 45 11 6 -31 38 -146 114 -89 58 -168 106 -175
105 -7 0 -89 -16 -183 -35z"/>
<path d="M1430 2285 c-30 -7 -115 -25 -187 -41 l-133 -28 -105 -158 c-58 -87
-105 -162 -105 -166 0 -9 396 69 404 80 20 27 199 305 203 315 6 15 -3 15 -77
-2z"/>
<path d="M1515 2149 c-55 -83 -108 -164 -118 -180 l-18 -28 180 -120 180 -121
24 33 c72 95 219 329 211 336 -19 18 -344 231 -351 231 -5 0 -53 -68 -108
-151z"/>
<path d="M2849 2201 c-97 -20 -177 -40 -177 -46 0 -5 70 -57 157 -114 l156
-104 160 33 c88 18 175 35 193 38 17 2 32 7 32 12 0 11 -318 220 -332 219 -7
-1 -92 -18 -189 -38z"/>
<path d="M2350 2099 c-47 -10 -131 -28 -186 -40 l-101 -21 -102 -155 c-56 -84
-104 -159 -107 -167 -3 -9 47 -2 178 26 101 21 190 40 198 43 13 5 208 294
218 324 4 13 7 14 -98 -10z"/>
<path d="M2610 2083 c0 -16 71 -359 78 -375 8 -20 326 -231 330 -220 1 4 -15
92 -36 195 l-38 187 -50 32 c-27 18 -102 67 -166 110 -65 43 -118 75 -118 71z"/>
<path d="M2417 1910 c-59 -88 -107 -168 -107 -179 0 -15 65 -348 74 -376 2 -5
53 66 115 159 65 100 109 176 106 185 -2 9 -20 94 -39 189 -19 96 -36 175 -38
178 -3 2 -53 -68 -111 -156z"/>
<path d="M3791 2020 c-101 -21 -185 -41 -188 -43 -3 -4 240 -169 325 -221 13
-8 371 60 385 73 7 7 -298 217 -327 226 -6 2 -94 -14 -195 -35z"/>
<path d="M3245 1908 c-110 -22 -204 -44 -208 -48 -4 -4 8 -85 28 -181 20 -96
39 -189 42 -206 3 -18 12 -33 19 -33 21 0 406 78 411 84 6 6 -76 409 -85 417
-4 4 -97 -11 -207 -33z"/>
<path d="M3553 1878 c3 -13 20 -99 39 -192 l33 -169 170 -114 c93 -62 172
-108 173 -103 2 6 -7 63 -21 128 -14 64 -31 147 -38 185 l-13 67 -167 110
c-92 61 -170 110 -174 110 -4 0 -5 -10 -2 -22z"/>
<path d="M1280 1881 c-14 -4 -100 -23 -192 -41 -93 -19 -168 -37 -168 -41 0
-6 263 -184 306 -207 17 -9 61 -3 215 29 107 21 198 40 202 42 7 2 -315 219
-332 224 -3 0 -17 -2 -31 -6z"/>
<path d="M4183 1716 c-105 -22 -194 -44 -198 -47 -3 -4 4 -51 15 -105 11 -55
30 -147 42 -206 14 -73 25 -108 34 -108 7 0 68 11 136 25 68 14 156 33 197 41
41 8 77 16 79 19 3 2 -7 62 -22 132 -15 70 -34 165 -42 211 -13 64 -20 82 -33
81 -9 -1 -102 -20 -208 -43z"/>
<path d="M2199 1696 c-2 -2 -87 -21 -189 -41 -102 -20 -190 -38 -197 -40 -11
-3 -1 -61 63 -361 l15 -71 137 29 c292 61 282 58 282 82 0 17 -56 304 -75 384
-5 19 -24 29 -36 18z"/>
<path d="M2543 1436 c-62 -95 -113 -177 -113 -182 0 -7 172 -125 330 -227 l27
-17 112 170 c62 94 114 177 117 185 4 9 -49 50 -162 126 -92 61 -175 113 -183
115 -11 3 -51 -49 -128 -170z"/>
<path d="M1450 1541 l-175 -36 -113 -168 c-63 -93 -112 -171 -109 -173 3 -3
90 12 193 33 l189 38 95 142 c52 78 103 156 113 172 23 39 33 39 -193 -8z"/>
<path d="M1622 1371 c-62 -94 -112 -179 -112 -189 0 -9 16 -93 35 -187 19 -93
35 -174 35 -178 0 -25 30 13 125 158 57 88 105 168 105 178 0 14 -65 351 -73
381 -2 5 -53 -69 -115 -163z"/>
<path d="M3509 1436 c-2 -3 -74 -18 -159 -36 -85 -17 -156 -32 -157 -34 -2 -2
74 -54 169 -116 l173 -113 185 37 c102 21 189 40 193 43 5 3 -65 54 -155 114
-141 94 -169 109 -204 109 -22 0 -43 -2 -45 -4z"/>
<path d="M3154 1249 c7 -45 39 -203 59 -295 l12 -52 169 -111 c92 -62 170
-111 171 -109 3 3 -53 293 -70 365 -4 16 -53 55 -153 121 -81 54 -158 105
-171 112 -24 12 -24 12 -17 -31z"/>
<path d="M2953 1118 c-55 -84 -103 -158 -106 -164 -6 -11 69 -393 79 -403 6
-6 1 -13 114 159 93 142 101 158 98 195 -7 67 -71 365 -78 365 -4 0 -52 -69
-107 -152z"/>
<path d="M2071 1140 c-101 -21 -186 -42 -189 -45 -4 -4 -55 -79 -114 -168 -74
-111 -103 -163 -93 -165 18 -4 368 67 376 76 13 14 210 314 216 328 6 17 24
20 -196 -26z"/>
<path d="M1210 1109 c-102 -22 -190 -41 -196 -43 -8 -3 -1 -54 23 -168 19 -90
37 -182 40 -206 3 -23 10 -45 14 -48 8 -5 405 73 420 82 5 3 -53 310 -76 402
-7 28 -1 28 -225 -19z"/>
<path d="M2430 1137 c0 -15 30 -165 61 -303 l20 -92 161 -106 c88 -59 162
-105 165 -103 2 3 -13 92 -34 198 l-39 194 -167 113 c-93 63 -167 107 -167 99z"/>
<path d="M3785 1106 c-144 -30 -201 -46 -203 -56 -3 -17 75 -400 83 -408 5 -5
104 13 320 58 55 12 101 22 102 24 1 1 -11 67 -28 147 -17 79 -36 173 -43 208
-6 36 -16 66 -21 67 -6 1 -100 -17 -210 -40z"/>
<path d="M2225 954 l-108 -166 39 -194 c30 -153 41 -192 50 -182 7 7 59 84
117 171 l104 158 -38 187 c-22 103 -39 188 -39 190 0 1 -4 2 -9 2 -4 0 -57
-75 -116 -166z"/>
<path d="M1830 706 c-158 -32 -206 -45 -208 -58 -3 -14 37 -226 69 -369 l10
-46 187 38 c250 51 232 46 232 73 0 28 -67 364 -78 387 -6 15 -28 12 -212 -25z"/>
</g>
</svg>
